<svg width="205" height="205" viewBox="0 0 205 205" fill="none" xmlns="http://www.w3.org/2000/svg">
<path d="M102.44 204.49H101.99C45.7532 204.49 0 158.723 0 102.47V102.02C0 45.7667 45.7532 0 101.99 0H102.44C158.676 0 204.429 45.7667 204.429 102.02V102.47C204.429 158.723 158.676 204.49 102.44 204.49ZM101.99 6.92176C49.566 6.92176 6.91972 49.5806 6.91972 102.02V102.47C6.91972 154.909 49.566 197.568 101.99 197.568H102.44C154.863 197.568 197.51 154.909 197.51 102.47V102.02C197.51 49.5806 154.863 6.92176 102.44 6.92176H101.99Z" fill="url(#paint0_linear_1_500)"/>
<path d="M132.776 43.6556H71.6606C54.7765 43.6556 41.0408 57.3953 41.0408 74.2844V130.212C41.0408 147.101 54.7765 160.841 71.6606 160.841H132.776C149.66 160.841 163.395 147.101 163.395 130.212V74.2844C163.395 57.3953 149.66 43.6556 132.776 43.6556ZM51.8425 74.2844C51.8425 63.355 60.7344 54.4605 71.6606 54.4605H132.776C143.702 54.4605 152.594 63.355 152.594 74.2844V130.212C152.594 141.142 143.702 150.036 132.776 150.036H71.6606C60.7344 150.036 51.8425 141.142 51.8425 130.212V74.2844Z" fill="url(#paint1_linear_1_500)"/>
<path d="M102.218 130.731C117.919 130.731 130.7 117.954 130.7 102.241C130.7 86.529 117.926 73.7514 102.218 73.7514C86.5105 73.7514 73.7366 86.529 73.7366 102.241C73.7366 117.954 86.5105 130.731 102.218 130.731ZM102.218 84.5632C111.968 84.5632 119.898 92.4956 119.898 102.248C119.898 112.001 111.968 119.933 102.218 119.933C92.4683 119.933 84.5383 112.001 84.5383 102.248C84.5383 92.4956 92.4683 84.5632 102.218 84.5632Z" fill="url(#paint2_linear_1_500)"/>
<path d="M133.336 78.3544C137.564 78.3544 141.01 74.9143 141.01 70.6782C141.01 66.4421 137.571 63.002 133.336 63.002C129.101 63.002 125.662 66.4421 125.662 70.6782C125.662 74.9143 129.101 78.3544 133.336 78.3544Z" fill="url(#paint3_linear_1_500)"/>
<defs>
<linearGradient id="paint0_linear_1_500" x1="29.907" y1="174.574" x2="174.565" y2="29.9584" gradientUnits="userSpaceOnUse">
<stop stop-color="#FAAD4F"/>
<stop offset="0.35" stop-color="#DD2A7B"/>
<stop offset="0.62" stop-color="#9537B0"/>
<stop offset="1" stop-color="#515BD4"/>
</linearGradient>
<linearGradient id="paint1_linear_1_500" x1="51.3166" y1="153.158" x2="153.143" y2="51.3688" gradientUnits="userSpaceOnUse">
<stop stop-color="#FAAD4F"/>
<stop offset="0.35" stop-color="#DD2A7B"/>
<stop offset="0.62" stop-color="#9537B0"/>
<stop offset="1" stop-color="#515BD4"/>
</linearGradient>
<linearGradient id="paint2_linear_1_500" x1="82.0887" y1="122.384" x2="122.353" y2="82.1248" gradientUnits="userSpaceOnUse">
<stop stop-color="#FAAD4F"/>
<stop offset="0.35" stop-color="#DD2A7B"/>
<stop offset="0.62" stop-color="#9537B0"/>
<stop offset="1" stop-color="#515BD4"/>
</linearGradient>
<linearGradient id="paint3_linear_1_500" x1="127.911" y1="76.1049" x2="138.764" y2="65.2547" gradientUnits="userSpaceOnUse">
<stop stop-color="#FAAD4F"/>
<stop offset="0.35" stop-color="#DD2A7B"/>
<stop offset="0.62" stop-color="#9537B0"/>
<stop offset="1" stop-color="#515BD4"/>
</linearGradient>
</defs>
</svg>
