<svg width="198" height="198" viewBox="0 0 198 198" fill="none" xmlns="http://www.w3.org/2000/svg">
<path d="M98.9798 0H98.53C44.1134 0 0 44.1264 0 98.559V99.0089C0 153.441 44.1134 197.568 98.53 197.568H98.9798C153.396 197.568 197.51 153.441 197.51 99.0089V98.559C197.51 44.1264 153.396 0 98.9798 0Z" fill="#00E510"/>
<path d="M118.002 127.679C92.7243 127.679 72.1589 107.1 72.1519 81.8153C72.1589 75.4057 77.3764 70.1937 83.7702 70.1937C84.4275 70.1937 85.0779 70.249 85.7007 70.3598C87.0708 70.5882 88.3718 71.052 89.5689 71.7511C89.7419 71.8549 89.8595 72.021 89.8872 72.2148L92.5582 89.0555C92.5928 89.2562 92.5305 89.45 92.399 89.5954C90.9251 91.2289 89.043 92.4056 86.9463 92.9939L85.9361 93.2777L86.3166 94.2537C89.7626 103.03 96.7792 110.042 105.56 113.503L106.536 113.891L106.82 112.88C107.408 110.783 108.584 108.9 110.217 107.426C110.335 107.315 110.494 107.26 110.653 107.26C110.688 107.26 110.723 107.26 110.764 107.267L127.6 109.938C127.8 109.973 127.966 110.084 128.07 110.257C128.762 111.454 129.226 112.762 129.461 114.133C129.572 114.742 129.62 115.386 129.62 116.057C129.62 122.46 124.41 127.672 118.002 127.679Z" fill="#FDFDFD"/>
<path d="M162.828 93.2362C161.465 77.8283 154.407 63.5349 142.955 52.993C131.433 42.3889 116.487 36.5469 100.855 36.5469C66.547 36.5469 38.6328 64.4693 38.6328 98.7874C38.6328 110.305 41.8089 121.525 47.8222 131.299L34.4117 160.993L77.3487 156.418C84.815 159.477 92.7173 161.028 100.848 161.028C102.986 161.028 105.18 160.917 107.38 160.689C109.318 160.481 111.276 160.177 113.2 159.789C141.93 153.982 162.904 128.475 163.07 99.1197V98.7874C163.07 96.9185 162.987 95.0497 162.821 93.2362H162.828ZM79.0025 143.384L55.2471 145.918L62.3398 130.198L60.9212 128.295C60.8174 128.156 60.7137 128.018 60.596 127.859C54.4375 119.352 51.1851 109.302 51.1851 98.7943C51.1851 71.398 73.4667 49.1099 100.855 49.1099C126.513 49.1099 148.262 69.1346 150.359 94.6967C150.469 96.0672 150.532 97.4446 150.532 98.8013C150.532 99.1889 150.525 99.5696 150.518 99.978C149.992 122.896 133.987 142.36 111.594 147.316C109.885 147.697 108.134 147.987 106.391 148.174C104.578 148.382 102.716 148.486 100.869 148.486C94.2881 148.486 87.8943 147.212 81.8534 144.693C81.1822 144.423 80.5248 144.132 79.9089 143.834L79.0094 143.398L79.0025 143.384Z" fill="#FDFDFD"/>
</svg>
